<svg xmlns="http://www.w3.org/2000/svg" viewBox="213 188 592 589">
<g transform="translate(0.000000,1024.000000) scale(0.100000,-0.100000)" fill="#09234A" stroke="none">
<path d="M4945 8149 c-423 -53 -746 -304 -847 -656 -31 -109 -31 -330 1 -448
46 -171 135 -319 280 -465 111 -111 207 -187 666 -530 505 -378 635 -504 756
-733 71 -136 100 -245 106 -397 6 -139 -12 -244 -61 -354 -61 -138 -183 -279
-300 -345 l-56 -32 0 -70 c0 -49 4 -69 13 -69 26 1 205 78 272 117 223 131
397 357 463 601 23 87 26 115 25 267 0 153 -2 180 -27 270 -30 112 -121 307
-188 402 -71 101 -178 220 -273 306 -117 104 -407 320 -772 576 -160 112 -332
238 -381 281 -159 139 -231 279 -240 465 -5 122 12 197 69 303 71 133 158 216
301 288 121 61 203 78 373 78 177 1 244 -14 380 -79 142 -69 241 -161 323
-301 35 -60 94 -207 113 -281 12 -50 15 -53 44 -53 l32 0 -9 63 c-4 34 -19
179 -33 321 -14 143 -28 263 -33 268 -16 16 -234 108 -324 137 -221 70 -467
95 -673 70z M5585 6323 c66 -50 165 -127 220 -172 l100 -81 90 0 c108 0 263
-13 480 -40 242 -30 343 -39 535 -45 167 -6 220 -16 220 -39 0 -5 -74 -208
-165 -451 -90 -242 -188 -506 -218 -587 l-54 -148 27 0 c18 0 30 6 33 18 3 9
43 121 90 247 47 127 131 354 187 505 56 151 104 278 108 282 4 4 6 -232 4
-523 l-3 -530 27 3 28 3 -3 520 c-1 286 -4 529 -7 540 -4 14 -3 17 4 10 6 -5
31 -66 55 -135 56 -156 153 -417 265 -712 84 -219 88 -228 114 -228 33 0 52
-60 -150 470 -83 217 -177 467 -210 555 l-60 160 34 31 c95 88 -21 212 -133
143 -33 -21 -44 -22 -172 -16 -217 9 -310 27 -916 177 -344 85 -483 115 -585
126 l-65 7 120 -90z M4275 6333 c-11 -2 -155 -38 -320 -79 -504 -126 -659
-154 -852 -154 -76 0 -98 4 -128 21 -46 28 -110 21 -137 -13 -26 -34 -23 -94
7 -123 13 -14 29 -25 35 -25 18 0 11 -34 -26 -126 -20 -49 -114 -298 -209
-554 -96 -256 -178 -477 -184 -492 -10 -26 -9 -28 17 -28 30 0 2 -70 307 757
61 167 115 306 118 310 4 3 7 -235 7 -530 l0 -537 25 0 25 0 -2 540 c-2 296 0
536 4 532 4 -4 36 -88 72 -187 35 -99 78 -216 94 -260 40 -108 219 -586 227
-607 8 -19 55 -25 55 -8 0 6 -41 120 -91 253 -50 133 -120 319 -154 412 -35
94 -93 249 -130 345 -77 205 -78 200 45 200 125 0 382 19 615 46 272 31 574
42 711 24 116 -14 283 -50 389 -84 41 -13 75 -22 75 -21 0 2 -87 68 -192 147
-106 79 -224 167 -263 196 -68 50 -88 57 -140 45z M3910 4731 l0 -509 78 -32
c261 -110 531 -173 835 -196 l87 -6 0 66 c0 63 -1 66 -27 72 -445 98 -708 352
-818 789 -18 72 -39 174 -45 228 l-12 97 -49 0 -49 0 0 -509z M2340 4705 c0
-21 93 -145 148 -197 245 -230 650 -237 877 -14 52 51 155 191 155 210 0 3
-265 6 -590 6 -324 0 -590 -2 -590 -5z m1062 -86 c-42 -67 -122 -138 -197
-175 -42 -20 -77 -35 -80 -32 -3 2 21 18 52 34 38 18 88 59 143 115 90 92 114
108 82 58z M6680 4702 c0 -24 85 -135 148 -194 276 -259 732 -228 948 65 26
34 55 79 65 100 l19 37 -590 0 c-324 0 -590 -4 -590 -8z m1062 -83 c-38 -61
-125 -139 -186 -169 -89 -42 -122 -46 -43 -5 45 24 94 63 150 118 88 90 111
105 79 56z M5090 3336 c0 -7 -3 -34 -6 -60 l-7 -46 92 0 91 0 0 60 0 60 -85 0
c-65 0 -85 -3 -85 -14z M5030 3140 c-16 -21 -30 -41 -30 -44 0 -3 74 -6 165
-6 91 0 165 4 165 9 0 10 -39 62 -54 73 -6 4 -56 7 -113 6 l-103 0 -30 -38z
M5033 3028 c8 -13 41 -101 73 -197 l58 -174 58 173 c31 95 64 183 73 196 l15
24 -145 0 -145 0 13 -22z"/>
</g>
<g transform="translate(0.000000,1024.000000) scale(0.100000,-0.100000)" fill="#C3132E" stroke="none">
<path d="M4754 7086 c-15 -39 0 -59 51 -71 75 -18 100 -30 145 -71 58 -53 92
-124 98 -206 l5 -67 152 -100 c84 -56 155 -101 158 -101 3 0 7 73 9 163 3 143
6 168 26 213 42 94 134 161 236 171 l56 6 0 38 0 39 -465 0 c-394 0 -466 -2
-471 -14z M5050 4803 l0 -1098 -26 -55 c-14 -30 -37 -68 -52 -83 -36 -38 -107
-73 -164 -82 -42 -6 -46 -10 -50 -37 -3 -16 0 -32 6 -34 6 -2 485 -3 1065 -2
l1054 3 19 100 c33 179 77 419 84 458 l6 37 -41 0 c-34 0 -41 -3 -41 -19 0
-10 -20 -59 -45 -108 -54 -108 -124 -179 -222 -226 l-68 -32 -602 -3 -603 -3
0 1024 0 1024 -22 20 c-21 18 -254 187 -285 207 -10 6 -13 -215 -13 -1091z"/>
</g>
</svg>